<svg xmlns="http://www.w3.org/2000/svg" xmlns:xlink="http://www.w3.org/1999/xlink" width="100" zoomAndPan="magnify" viewBox="0 0 75 74.999997" height="100" preserveAspectRatio="xMidYMid meet" version="1.0"><defs><clipPath id="d15b00d29e"><path d="M 24.4375 24.4375 L 50.6875 24.4375 L 50.6875 50.6875 L 24.4375 50.6875 Z M 24.4375 24.4375 " clip-rule="nonzero"/></clipPath></defs><rect x="-7.5" width="90" fill="#ffffff" y="-7.5" height="89.999996" fill-opacity="1"/><rect x="-7.5" width="90" fill="#ffffff" y="-7.5" height="89.999996" fill-opacity="1"/><g clip-path="url(#d15b00d29e)"><path fill="#e52d27" d="M 50.6875 46.699219 C 50.6875 48.898438 48.898438 50.6875 46.699219 50.6875 L 28.425781 50.6875 C 26.226562 50.6875 24.4375 48.898438 24.4375 46.699219 L 24.4375 28.425781 C 24.4375 26.226562 26.226562 24.4375 28.425781 24.4375 L 46.699219 24.4375 C 48.898438 24.4375 50.6875 26.226562 50.6875 28.425781 Z M 50.6875 46.699219 " fill-opacity="1" fill-rule="nonzero"/></g><path fill="#ffffff" d="M 46.867188 37.769531 C 46.867188 39.222656 46.867188 40.761719 46.542969 42.167969 C 46.316406 43.15625 45.507812 43.882812 44.53125 43.992188 C 42.226562 44.246094 39.886719 44.253906 37.566406 44.246094 C 35.238281 44.246094 32.910156 44.246094 30.601562 43.992188 C 29.628906 43.882812 28.816406 43.15625 28.585938 42.167969 C 28.261719 40.761719 28.261719 39.222656 28.261719 37.769531 C 28.261719 36.320312 28.265625 34.78125 28.585938 33.375 C 28.816406 32.382812 29.625 31.660156 30.601562 31.550781 C 32.910156 31.289062 35.242188 31.289062 37.566406 31.289062 C 39.886719 31.289062 42.222656 31.289062 44.53125 31.550781 C 45.503906 31.660156 46.316406 32.382812 46.542969 33.375 C 46.867188 34.78125 46.867188 36.320312 46.867188 37.769531 Z M 46.867188 37.769531 " fill-opacity="1" fill-rule="nonzero"/><path fill="#e52d27" d="M 35.605469 34.3125 L 35.605469 41.261719 L 41.007812 37.785156 Z M 35.605469 34.3125 " fill-opacity="1" fill-rule="nonzero"/></svg>