<svg xmlns="http://www.w3.org/2000/svg" xmlns:xlink="http://www.w3.org/1999/xlink" width="100" zoomAndPan="magnify" viewBox="0 0 75 74.999997" height="100" preserveAspectRatio="xMidYMid meet" version="1.0"><defs><clipPath id="262333ef5c"><path d="M 24.4375 24.4375 L 50.6875 24.4375 L 50.6875 50.6875 L 24.4375 50.6875 Z M 24.4375 24.4375 " clip-rule="nonzero"/></clipPath></defs><rect x="-7.5" width="90" fill="#ffffff" y="-7.5" height="89.999996" fill-opacity="1"/><rect x="-7.5" width="90" fill="#ffffff" y="-7.5" height="89.999996" fill-opacity="1"/><g clip-path="url(#262333ef5c)"><path fill="#000000" d="M 44.316406 50.6875 L 30.878906 50.6875 C 27.328125 50.6875 24.472656 47.832031 24.472656 44.28125 L 24.472656 30.84375 C 24.472656 27.292969 27.328125 24.4375 30.878906 24.4375 L 44.246094 24.4375 C 47.796875 24.4375 50.652344 27.292969 50.652344 30.84375 L 50.652344 44.210938 C 50.652344 47.761719 47.796875 50.617188 44.246094 50.617188 Z M 30.878906 26.527344 C 28.511719 26.527344 26.5625 28.476562 26.5625 30.84375 L 26.5625 44.210938 C 26.5625 46.578125 28.511719 48.53125 30.878906 48.53125 L 44.246094 48.53125 C 46.613281 48.53125 48.5625 46.578125 48.5625 44.210938 L 48.5625 30.84375 C 48.5625 28.476562 46.613281 26.527344 44.246094 26.527344 Z M 30.878906 26.527344 " fill-opacity="1" fill-rule="nonzero"/></g><path fill="#000000" d="M 37.632812 46.023438 C 33.035156 46.023438 29.347656 42.332031 29.347656 37.738281 C 29.347656 33.140625 33.035156 29.453125 37.632812 29.453125 C 42.226562 29.453125 45.917969 33.140625 45.917969 37.738281 C 45.917969 42.332031 42.226562 46.023438 37.632812 46.023438 Z M 37.632812 31.46875 C 34.152344 31.46875 31.367188 34.253906 31.367188 37.738281 C 31.367188 41.21875 34.152344 44.003906 37.632812 44.003906 C 41.113281 44.003906 43.898438 41.21875 43.898438 37.738281 C 43.898438 34.253906 41.113281 31.46875 37.632812 31.46875 Z M 37.632812 31.46875 " fill-opacity="1" fill-rule="nonzero"/><path fill="#000000" d="M 37.632812 41.496094 C 35.542969 41.496094 33.871094 39.824219 33.871094 37.738281 C 33.871094 35.648438 35.542969 33.976562 37.632812 33.976562 C 39.722656 33.976562 41.390625 35.648438 41.390625 37.738281 C 41.390625 39.824219 39.722656 41.496094 37.632812 41.496094 Z M 37.632812 36.066406 C 36.726562 36.066406 35.960938 36.832031 35.960938 37.738281 C 35.960938 38.640625 36.726562 39.40625 37.632812 39.40625 C 38.539062 39.40625 39.304688 38.640625 39.304688 37.738281 C 39.304688 36.832031 38.539062 36.066406 37.632812 36.066406 Z M 37.632812 36.066406 " fill-opacity="1" fill-rule="nonzero"/><path fill="#000000" d="M 46.613281 29.9375 C 46.613281 30.125 46.578125 30.300781 46.507812 30.472656 C 46.4375 30.640625 46.335938 30.792969 46.207031 30.921875 C 46.078125 31.054688 45.925781 31.15625 45.753906 31.226562 C 45.585938 31.296875 45.40625 31.332031 45.222656 31.332031 C 45.039062 31.332031 44.859375 31.296875 44.6875 31.226562 C 44.519531 31.15625 44.367188 31.054688 44.238281 30.921875 C 44.105469 30.792969 44.007812 30.640625 43.933594 30.472656 C 43.863281 30.300781 43.828125 30.125 43.828125 29.9375 C 43.828125 29.753906 43.863281 29.578125 43.933594 29.40625 C 44.007812 29.234375 44.105469 29.085938 44.238281 28.953125 C 44.367188 28.824219 44.519531 28.722656 44.6875 28.652344 C 44.859375 28.582031 45.039062 28.546875 45.222656 28.546875 C 45.40625 28.546875 45.585938 28.582031 45.753906 28.652344 C 45.925781 28.722656 46.078125 28.824219 46.207031 28.953125 C 46.335938 29.085938 46.4375 29.234375 46.507812 29.40625 C 46.578125 29.578125 46.613281 29.753906 46.613281 29.9375 Z M 46.613281 29.9375 " fill-opacity="1" fill-rule="nonzero"/></svg>