<svg xmlns="http://www.w3.org/2000/svg" xmlns:xlink="http://www.w3.org/1999/xlink" width="100" zoomAndPan="magnify" viewBox="0 0 75 74.999997" height="100" preserveAspectRatio="xMidYMid meet" version="1.0"><defs><filter x="0%" y="0%" width="100%" height="100%" id="f605df4e6d"><feColorMatrix values="0 0 0 0 1 0 0 0 0 1 0 0 0 0 1 0 0 0 1 0" color-interpolation-filters="sRGB"/></filter><clipPath id="fef60e3280"><path d="M 22.5 24.429688 L 52 24.429688 L 52 50.679688 L 22.5 50.679688 Z M 22.5 24.429688 " clip-rule="nonzero"/></clipPath><mask id="4733d5cd26"><g filter="url(#f605df4e6d)"><rect x="-7.5" width="90" fill="#000000" y="-7.5" height="89.999996" fill-opacity="0.2"/></g></mask><clipPath id="dec6964ae4"><path d="M 0.800781 10 L 16.640625 10 L 16.640625 23.71875 L 0.800781 23.71875 Z M 0.800781 10 " clip-rule="nonzero"/></clipPath><clipPath id="2b941b14d7"><path d="M 3 0.679688 L 9 0.679688 L 9 11 L 3 11 Z M 3 0.679688 " clip-rule="nonzero"/></clipPath><clipPath id="9a63f86bcd"><rect x="0" width="17" y="0" height="24"/></clipPath></defs><rect x="-7.5" width="90" fill="#ffffff" y="-7.5" height="89.999996" fill-opacity="1"/><rect x="-7.5" width="90" fill="#ffffff" y="-7.5" height="89.999996" fill-opacity="1"/><path fill="#ffffff" d="M 49.253906 35.652344 L 41.175781 35.652344 C 41.484375 34.40625 42.0625 30.445312 42.0625 30.445312 C 41.929688 28.519531 40.648438 26.105469 40.648438 26.105469 C 39.125 25.460938 38.441406 26.34375 38.441406 26.34375 C 38.441406 26.34375 38.519531 29.402344 38.519531 30.109375 C 38.519531 30.816406 35.042969 36.464844 34.191406 37.191406 C 33.742188 37.578125 32.933594 38.109375 32.273438 38.519531 L 32.273438 47.636719 L 32.800781 47.636719 C 33.410156 47.636719 34.15625 48.582031 34.980469 48.582031 L 46.636719 48.578125 C 48.980469 48.578125 49.351562 45.925781 47.804688 45.671875 L 47.875 45.378906 C 49.355469 45.21875 50.257812 42.863281 48.367188 42.378906 L 48.4375 42.085938 C 49.851562 41.9375 50.902344 39.652344 48.925781 39.089844 L 48.996094 38.796875 C 50.855469 38.5 51.234375 35.652344 49.253906 35.652344 Z M 49.253906 35.652344 " fill-opacity="1" fill-rule="nonzero"/><g clip-path="url(#fef60e3280)"><path fill="#32363b" d="M 50.996094 38.894531 C 52.480469 37.410156 52.019531 34.40625 49.449219 34.40625 L 42.679688 34.410156 C 42.9375 32.96875 43.308594 30.585938 43.292969 30.359375 C 43.152344 28.226562 41.796875 25.628906 41.738281 25.519531 C 41.492188 25.058594 40.246094 24.433594 38.992188 24.703125 C 37.367188 25.050781 37.199219 26.089844 37.207031 26.375 C 37.207031 26.375 37.277344 29.222656 37.285156 29.980469 C 36.511719 31.691406 33.835938 36.1875 33.023438 36.535156 C 32.832031 36.417969 32.609375 36.355469 32.382812 36.355469 L 23.828125 36.355469 C 23.105469 36.355469 22.519531 36.941406 22.519531 37.667969 L 22.519531 49.539062 C 22.570312 50.179688 23.113281 50.683594 23.75 50.683594 L 31.429688 50.683594 C 32.109375 50.683594 32.664062 50.125 32.664062 49.441406 L 32.664062 49.046875 C 32.664062 49.046875 32.949219 49.027344 33.078125 49.109375 C 33.574219 49.425781 34.183594 49.820312 34.980469 49.820312 L 46.441406 49.820312 C 50.722656 49.820312 50.265625 46.003906 49.875 45.480469 C 50.597656 44.6875 51.046875 43.292969 50.433594 42.1875 C 50.90625 41.6875 51.734375 40.316406 50.996094 38.894531 Z M 50.996094 38.894531 " fill-opacity="1" fill-rule="nonzero"/></g><path fill="#ffffff" d="M 49.253906 35.652344 L 41.175781 35.652344 C 41.484375 34.40625 42.0625 30.445312 42.0625 30.445312 C 41.929688 28.519531 40.648438 26.105469 40.648438 26.105469 C 39.125 25.460938 38.441406 26.34375 38.441406 26.34375 C 38.441406 26.34375 38.519531 29.402344 38.519531 30.109375 C 38.519531 30.816406 35.042969 36.464844 34.191406 37.191406 C 33.742188 37.578125 32.933594 38.109375 32.273438 38.519531 L 32.273438 47.636719 L 32.800781 47.636719 C 33.410156 47.636719 34.15625 48.582031 34.980469 48.582031 L 46.636719 48.578125 C 48.980469 48.578125 49.351562 45.925781 47.804688 45.671875 L 47.875 45.378906 C 49.355469 45.21875 50.257812 42.863281 48.367188 42.378906 L 48.4375 42.085938 C 49.851562 41.9375 50.902344 39.652344 48.925781 39.089844 L 48.996094 38.796875 C 50.855469 38.5 51.234375 35.652344 49.253906 35.652344 Z M 49.253906 35.652344 " fill-opacity="1" fill-rule="nonzero"/><path fill="#6883b0" d="M 33.4375 47.875 L 33.4375 37.761719 C 33.417969 37.773438 32.359375 38.46875 32.273438 38.519531 L 32.273438 47.636719 L 32.800781 47.636719 C 33 47.636719 33.210938 47.738281 33.4375 47.875 Z M 33.4375 47.875 " fill-opacity="0.2" fill-rule="nonzero"/><g mask="url(#4733d5cd26)"><g transform="matrix(1, 0, 0, 1, 34, 25)"><g clip-path="url(#9a63f86bcd)"><g clip-path="url(#dec6964ae4)"><path fill="#6883b0" d="M 14.925781 14.089844 L 14.996094 13.796875 C 16.855469 13.5 17.234375 10.652344 15.253906 10.652344 L 11.351562 10.652344 C 13.332031 10.652344 12.953125 13.5 11.09375 13.796875 L 11.0625 13.96875 C 13.039062 14.53125 11.949219 16.9375 10.53125 17.085938 L 10.503906 17.261719 C 12.394531 17.746094 11.453125 20.21875 9.972656 20.378906 L 9.941406 20.550781 C 11.488281 20.804688 11.074219 23.578125 8.734375 23.578125 L 0.957031 23.578125 C 0.964844 23.578125 0.972656 23.582031 0.980469 23.582031 L 12.636719 23.578125 C 14.980469 23.578125 15.351562 20.925781 13.804688 20.671875 L 13.875 20.378906 C 15.355469 20.21875 16.257812 17.863281 14.367188 17.378906 L 14.4375 17.085938 C 15.851562 16.9375 16.902344 14.652344 14.925781 14.089844 Z M 14.925781 14.089844 " fill-opacity="1" fill-rule="nonzero"/></g><g clip-path="url(#2b941b14d7)"><path fill="#6883b0" d="M 5.566406 0.871094 C 5.570312 0.890625 6.515625 4.414062 6.515625 4.917969 C 6.515625 5.425781 3.648438 9.722656 4.03125 10.265625 C 4.554688 11.007812 7.175781 10.652344 7.175781 10.652344 C 7.484375 9.40625 8.0625 5.445312 8.0625 5.445312 C 7.929688 3.519531 6.648438 1.105469 6.648438 1.105469 C 6.597656 1.082031 6.160156 0.871094 5.566406 0.871094 Z M 5.566406 0.871094 " fill-opacity="1" fill-rule="nonzero"/></g></g></g></g><path fill="#6883b0" d="M 23.75 37.59375 L 31.445312 37.59375 L 31.445312 49.441406 L 23.75 49.441406 Z M 23.75 37.59375 " fill-opacity="1" fill-rule="nonzero"/><path fill="#758eb3" d="M 30.953125 48.894531 L 24.246094 48.894531 L 24.246094 39.078125 L 30.953125 39.066406 Z M 30.953125 48.894531 " fill-opacity="1" fill-rule="nonzero"/></svg>