<svg xmlns="http://www.w3.org/2000/svg" xmlns:xlink="http://www.w3.org/1999/xlink" width="100" zoomAndPan="magnify" viewBox="0 0 75 74.999997" height="100" preserveAspectRatio="xMidYMid meet" version="1.0"><defs><clipPath id="0803b2b745"><path d="M 26.125 34 L 35 34 L 35 49 L 26.125 49 Z M 26.125 34 " clip-rule="nonzero"/></clipPath><clipPath id="35ed9db61c"><path d="M 29 26 L 48.625 26 L 48.625 51.222656 L 29 51.222656 Z M 29 26 " clip-rule="nonzero"/></clipPath></defs><rect x="-7.5" width="90" fill="#ffffff" y="-7.5" height="89.999996" fill-opacity="1"/><rect x="-7.5" width="90" fill="#ffffff" y="-7.5" height="89.999996" fill-opacity="1"/><path fill="#25f4ee" d="M 37.375 31.289062 C 37.390625 29.203125 37.375 27.117188 37.390625 25.03125 L 41.578125 25.03125 C 41.5625 25.398438 41.609375 25.769531 41.671875 26.121094 L 38.589844 26.121094 L 38.589844 43.054688 C 38.605469 43.777344 38.433594 44.5 38.085938 45.128906 C 37.546875 46.089844 36.519531 46.75 35.429688 46.84375 C 34.734375 46.894531 34.039062 46.765625 33.40625 46.425781 C 32.933594 46.171875 32.539062 45.800781 32.222656 45.351562 C 33.296875 45.960938 34.6875 45.898438 35.730469 45.222656 C 36.726562 44.597656 37.390625 43.410156 37.390625 42.207031 C 37.375 38.546875 37.375 34.917969 37.375 31.289062 Z M 44.277344 30.085938 C 44.863281 30.457031 45.511719 30.746094 46.191406 30.90625 C 46.585938 31 46.996094 31.035156 47.40625 31.035156 L 47.40625 31.996094 C 46.207031 31.707031 45.101562 31.035156 44.277344 30.085938 Z M 44.277344 30.085938 " fill-opacity="1" fill-rule="nonzero"/><g clip-path="url(#0803b2b745)"><path fill="#25f4ee" d="M 29.804688 35.398438 C 31.308594 34.4375 33.140625 34.050781 34.894531 34.308594 L 34.894531 35.320312 C 34.417969 35.335938 33.960938 35.398438 33.503906 35.480469 C 32.382812 35.71875 31.308594 36.203125 30.375 36.890625 C 29.378906 37.648438 28.621094 38.675781 28.082031 39.828125 C 27.578125 40.921875 27.324219 42.125 27.339844 43.328125 C 27.339844 44.660156 27.703125 45.945312 28.320312 47.117188 C 28.605469 47.648438 28.9375 48.175781 29.378906 48.59375 C 28.496094 47.96875 27.75 47.117188 27.199219 46.15625 C 26.457031 44.886719 26.09375 43.394531 26.125 41.902344 C 26.171875 40.535156 26.566406 39.1875 27.261719 38.015625 C 27.894531 36.972656 28.777344 36.042969 29.804688 35.398438 Z M 29.804688 35.398438 " fill-opacity="1" fill-rule="nonzero"/></g><path fill="#ffffff" d="M 38.589844 26.121094 L 41.703125 26.121094 C 41.8125 26.730469 42.035156 27.308594 42.304688 27.855469 C 42.746094 28.707031 43.363281 29.460938 44.152344 29.957031 C 44.199219 29.988281 44.246094 30.039062 44.277344 30.085938 C 45.101562 31.035156 46.207031 31.707031 47.421875 31.980469 C 47.4375 33.089844 47.421875 34.210938 47.421875 35.320312 C 45.371094 35.335938 43.316406 34.675781 41.65625 33.457031 C 41.65625 36.105469 41.65625 38.769531 41.671875 41.417969 C 41.671875 41.773438 41.6875 42.125 41.671875 42.496094 C 41.578125 43.777344 41.183594 45.0625 40.550781 46.1875 C 40.011719 47.164062 39.253906 48.03125 38.371094 48.691406 C 37.230469 49.558594 35.808594 50.039062 34.386719 50.070312 C 33.660156 50.085938 32.933594 50.054688 32.222656 49.894531 C 31.226562 49.671875 30.28125 49.253906 29.441406 48.660156 L 29.394531 48.609375 C 28.984375 48.191406 28.636719 47.664062 28.335938 47.132812 C 27.71875 45.992188 27.355469 44.675781 27.355469 43.34375 C 27.339844 42.140625 27.59375 40.921875 28.097656 39.847656 C 28.621094 38.707031 29.410156 37.664062 30.390625 36.910156 C 31.324219 36.203125 32.382812 35.71875 33.519531 35.496094 C 33.976562 35.398438 34.449219 35.351562 34.910156 35.335938 C 34.925781 35.753906 34.910156 36.1875 34.925781 36.585938 L 34.925781 38.738281 C 34.402344 38.5625 33.820312 38.5625 33.265625 38.691406 C 32.617188 38.835938 32 39.140625 31.480469 39.574219 C 31.164062 39.847656 30.894531 40.183594 30.722656 40.550781 C 30.390625 41.179688 30.28125 41.917969 30.359375 42.621094 C 30.4375 43.3125 30.722656 43.972656 31.164062 44.484375 C 31.449219 44.855469 31.84375 45.128906 32.222656 45.382812 C 32.539062 45.832031 32.933594 46.203125 33.40625 46.460938 C 34.023438 46.796875 34.734375 46.941406 35.429688 46.875 C 36.519531 46.796875 37.53125 46.121094 38.085938 45.160156 C 38.433594 44.535156 38.605469 43.8125 38.589844 43.089844 C 38.605469 37.40625 38.589844 31.753906 38.589844 26.121094 Z M 38.589844 26.121094 " fill-opacity="1" fill-rule="nonzero"/><g clip-path="url(#35ed9db61c)"><path fill="#fe2c55" d="M 41.6875 26.121094 C 42.050781 26.136719 42.414062 26.121094 42.792969 26.121094 C 42.792969 27.355469 43.171875 28.59375 43.882812 29.605469 C 43.980469 29.734375 44.058594 29.84375 44.152344 29.957031 C 43.347656 29.460938 42.714844 28.707031 42.304688 27.855469 C 42.035156 27.324219 41.8125 26.730469 41.6875 26.121094 Z M 47.40625 31.980469 C 47.800781 32.078125 48.214844 32.109375 48.625 32.109375 L 48.625 36.410156 C 46.554688 36.425781 44.484375 35.71875 42.792969 34.484375 L 42.792969 43.007812 C 42.808594 43.648438 42.761719 44.292969 42.621094 44.933594 C 42.226562 46.859375 41.085938 48.59375 39.539062 49.71875 C 38.71875 50.328125 37.769531 50.746094 36.773438 50.96875 C 35.574219 51.242188 34.324219 51.226562 33.140625 50.921875 C 31.734375 50.554688 30.4375 49.765625 29.457031 48.675781 C 30.296875 49.285156 31.242188 49.6875 32.238281 49.910156 C 32.949219 50.070312 33.675781 50.121094 34.402344 50.085938 C 35.824219 50.054688 37.230469 49.574219 38.386719 48.707031 C 39.269531 48.046875 39.996094 47.183594 40.566406 46.203125 C 41.199219 45.078125 41.609375 43.8125 41.6875 42.511719 C 41.703125 42.15625 41.703125 41.804688 41.6875 41.433594 C 41.671875 38.769531 41.671875 36.121094 41.671875 33.472656 C 43.347656 34.691406 45.402344 35.351562 47.4375 35.335938 C 47.40625 34.210938 47.421875 33.089844 47.40625 31.980469 Z M 47.40625 31.980469 " fill-opacity="1" fill-rule="nonzero"/></g><path fill="#fe2c55" d="M 34.910156 35.304688 C 35.304688 35.304688 35.730469 35.320312 36.125 35.382812 L 36.125 39.796875 C 35.542969 39.589844 34.894531 39.574219 34.292969 39.71875 C 33.15625 39.972656 32.191406 40.855469 31.78125 41.980469 C 31.386719 43.089844 31.542969 44.371094 32.238281 45.320312 C 31.84375 45.078125 31.480469 44.789062 31.179688 44.421875 C 30.738281 43.90625 30.453125 43.234375 30.375 42.558594 C 30.296875 41.851562 30.40625 41.113281 30.738281 40.488281 C 30.910156 40.117188 31.195312 39.78125 31.496094 39.507812 C 32 39.058594 32.632812 38.785156 33.28125 38.625 C 33.820312 38.496094 34.402344 38.496094 34.941406 38.675781 L 34.941406 36.523438 C 34.910156 36.152344 34.941406 35.738281 34.910156 35.304688 Z M 34.910156 35.304688 " fill-opacity="1" fill-rule="nonzero"/></svg>